<mxfile host="app.diagrams.net" modified="2023-10-07T03:18:13.675Z" agent="Mozilla/5.0 (Macintosh; Intel Mac OS X 10_15_7) AppleWebKit/537.36 (KHTML, like Gecko) Chrome/114.0.0.0 Safari/537.36" version="21.8.0" etag="d31y0J5p1re9LmU-KkDH" type="github">
  <diagram name="第 1 页" id="ZmVqOXMGigyRXiIxbday">
    <mxGraphModel>
      <root>
        <mxCell id="0" />
        <mxCell id="1" parent="0" />
      </root>
    </mxGraphModel>
  </diagram>
</mxfile>
